<svg width="45" height="45" viewBox="0 0 45 45" fill="none" xmlns="http://www.w3.org/2000/svg">
<circle cx="22.5" cy="22.5" r="22" stroke="#EC3636"/>
<g clip-path="url(#clip0_56_614)">
<path d="M25.713 28.8947C27.0967 28.577 28.4129 28.0326 29.6138 27.2786C30.5165 26.6741 30.761 25.4554 30.1557 24.5494C29.5764 23.6817 28.417 23.4192 27.52 23.9522C24.7567 25.6788 21.2442 25.6788 18.4809 23.9522C17.5669 23.3729 16.3522 23.6476 15.7729 24.5608C15.7729 24.5649 15.7729 24.5649 15.7729 24.5649C15.1935 25.4838 15.4682 26.6977 16.3871 27.2729L16.3904 27.277C17.5888 28.031 18.905 28.5762 20.2839 28.8898L16.5301 32.6427C15.7639 33.3967 15.7525 34.6228 16.5009 35.3898L16.5342 35.4231C16.9071 35.8074 17.4109 35.9984 17.9146 35.9984C18.4184 35.9984 18.9213 35.8074 19.2934 35.4231L23.0009 31.7368L26.6864 35.428C27.4696 36.1763 28.7135 36.1592 29.4675 35.3768C30.2029 34.6155 30.2029 33.4081 29.4675 32.6468L25.713 28.8947ZM23 23.4192C26.7075 23.4152 29.7072 20.4138 29.7113 16.7112C29.7113 13.0127 26.6985 10 23 10C19.3015 10 16.2888 13.0127 16.2888 16.7112C16.2929 20.4187 19.2975 23.4192 23 23.4233V23.4192ZM23 13.9357C24.5316 13.9357 25.7755 15.1797 25.7755 16.7112C25.7755 18.2477 24.5316 19.4876 23 19.4924C21.4685 19.4884 20.2245 18.2477 20.2205 16.7112C20.2245 15.1797 21.4685 13.9358 23 13.9317V13.9357Z" fill="#EC3636"/>
</g>
<defs>
<clipPath id="clip0_56_614">
<rect width="26" height="26" fill="white" transform="translate(10 10)"/>
</clipPath>
</defs>
</svg>
