<svg width="45" height="45" viewBox="0 0 45 45" fill="none" xmlns="http://www.w3.org/2000/svg">
<path d="M36.3984 27.6239C36.3626 27.5583 36.3292 27.5039 36.2983 27.4604C35.7855 26.6751 34.8056 25.7113 33.3591 24.5687L33.3286 24.5425L33.3133 24.5297L33.2978 24.5165H33.2823C32.6258 23.9845 32.2101 23.6267 32.036 23.4435C31.7175 23.0946 31.6461 22.7415 31.8202 22.3836C31.9432 22.1132 32.4052 21.5423 33.2051 20.6699C33.6259 20.2076 33.9592 19.837 34.2053 19.5579C35.9802 17.5516 36.7496 16.2696 36.5136 15.7113L36.4219 15.5809C36.3603 15.5023 36.2013 15.4305 35.9451 15.3649C35.6884 15.2996 35.3602 15.2887 34.96 15.3323L30.5283 15.3583C30.4565 15.3367 30.354 15.3387 30.2205 15.3649C30.0871 15.3912 30.0203 15.4043 30.0203 15.4043L29.9432 15.4371L29.882 15.4764C29.8307 15.5025 29.7742 15.5482 29.7126 15.6137C29.6514 15.6789 29.6001 15.7554 29.5591 15.8426C29.0767 16.898 28.5281 17.8793 27.9124 18.7863C27.5328 19.3272 27.1842 19.796 26.8658 20.1929C26.5479 20.5896 26.2812 20.8819 26.0659 21.0693C25.8503 21.2569 25.6557 21.4071 25.481 21.5206C25.3065 21.6342 25.1733 21.6822 25.0811 21.6646C24.9887 21.6471 24.9016 21.6297 24.8192 21.6122C24.6757 21.5337 24.5603 21.4269 24.4732 21.2917C24.3858 21.1565 24.3269 20.9864 24.2962 20.7814C24.2656 20.5763 24.2474 20.3998 24.2423 20.2515C24.2375 20.1034 24.2397 19.8938 24.2501 19.6234C24.2608 19.3529 24.2656 19.1699 24.2656 19.0739C24.2656 18.7424 24.2732 18.3827 24.2884 17.9945C24.3039 17.6064 24.3165 17.2989 24.327 17.0723C24.3375 16.8455 24.3423 16.6056 24.3423 16.3526C24.3423 16.0997 24.3242 15.9013 24.2884 15.7573C24.253 15.6135 24.1988 15.4739 24.1273 15.3386C24.0553 15.2034 23.95 15.0988 23.8118 15.0246C23.6733 14.9505 23.5012 14.8916 23.2963 14.8479C22.7525 14.7433 22.0601 14.6867 21.2187 14.6779C19.3107 14.6605 18.0847 14.7652 17.541 14.992C17.3256 15.0878 17.1306 15.2188 16.9563 15.3844C16.7716 15.5763 16.7458 15.6811 16.8792 15.6983C17.4948 15.7767 17.9306 15.9643 18.1871 16.2608L18.2795 16.418C18.3514 16.5313 18.4232 16.732 18.4951 17.0198C18.5668 17.3076 18.6131 17.626 18.6335 17.9747C18.6847 18.6115 18.6847 19.1567 18.6335 19.6101C18.5821 20.0638 18.5336 20.417 18.4873 20.6699C18.441 20.9229 18.3718 21.1279 18.2795 21.2848C18.1871 21.4418 18.1256 21.5378 18.0948 21.5726C18.064 21.6074 18.0384 21.6294 18.018 21.638C17.8846 21.6814 17.746 21.7036 17.6024 21.7036C17.4587 21.7036 17.2844 21.6424 17.0792 21.5203C16.8742 21.3981 16.6613 21.2303 16.4407 21.0166C16.2201 20.8028 15.9713 20.504 15.6942 20.1203C15.4174 19.7366 15.1301 19.283 14.8326 18.7597L14.5864 18.3802C14.4326 18.136 14.2224 17.7805 13.9556 17.314C13.6887 16.8472 13.4528 16.3958 13.2477 15.9597C13.1658 15.7765 13.0426 15.6371 12.8785 15.5411L12.8015 15.5017C12.7503 15.4669 12.6681 15.4299 12.5553 15.3905C12.4424 15.3511 12.3246 15.3229 12.2014 15.3056L7.98503 15.3316C7.55417 15.3316 7.26183 15.4146 7.1079 15.5803L7.0463 15.6587C7.01552 15.7024 7 15.7721 7 15.8681C7 15.9641 7.03078 16.0819 7.09238 16.2213C7.70789 17.4513 8.37724 18.6375 9.10044 19.7801C9.82363 20.9227 10.4521 21.8431 10.9854 22.5404C11.5188 23.2383 12.0625 23.8969 12.6165 24.516C13.1706 25.1354 13.5373 25.5323 13.7167 25.7066C13.8963 25.8813 14.0374 26.0119 14.14 26.0991L14.5248 26.4131C14.771 26.6224 15.1325 26.8732 15.6096 27.1653C16.0867 27.4576 16.615 27.7454 17.1946 28.0291C17.7743 28.3124 18.4487 28.5435 19.2182 28.7223C19.9876 28.9012 20.7365 28.973 21.4649 28.9384H23.2345C23.5935 28.912 23.8654 28.8161 24.0502 28.6505L24.1114 28.5849C24.1526 28.5328 24.1911 28.452 24.2267 28.3431C24.2627 28.2341 24.2806 28.114 24.2806 27.9834C24.2701 27.6084 24.3037 27.2704 24.3804 26.9695C24.4571 26.6687 24.5445 26.4419 24.6423 26.2892C24.74 26.1366 24.8503 26.0078 24.973 25.9034C25.096 25.7988 25.1836 25.7354 25.2351 25.7136C25.2862 25.6917 25.327 25.6768 25.3577 25.6679C25.6039 25.5981 25.8937 25.6657 26.2274 25.8708C26.5609 26.0758 26.8736 26.3289 27.1662 26.6297C27.4586 26.9307 27.8099 27.2685 28.2202 27.6435C28.6307 28.0186 28.9897 28.2975 29.2973 28.4809L29.605 28.6379C29.8104 28.7427 30.0771 28.8386 30.4055 28.9258C30.7332 29.013 31.0204 29.0348 31.267 28.9912L35.2062 28.939C35.5958 28.939 35.899 28.8841 36.114 28.7753C36.3295 28.6663 36.4575 28.5462 36.4988 28.4155C36.54 28.2847 36.5422 28.1364 36.5066 27.9705C36.4701 27.805 36.4342 27.6893 36.3984 27.6239Z" fill="#EC3636"/>
<circle cx="22.5" cy="22.5" r="22" stroke="#EC3636"/>
</svg>
