<svg width="88" height="89" viewBox="0 0 88 89" fill="none" xmlns="http://www.w3.org/2000/svg">
<circle cx="44.3409" cy="44.392" r="43.6591" fill="#FF6B00"/>
<path d="M65.5933 59.6404C66.1383 60.1854 66.2172 60.795 65.8299 61.469C65.0555 62.7455 64.0157 63.7924 62.7106 64.6099C61.4198 65.4418 59.9928 65.9294 58.4295 66.0728V66.0943H58.0208C57.9778 66.0943 57.9347 66.0943 57.8917 66.0943C57.8487 66.0943 57.8056 66.0943 57.7626 66.0943C57.7339 66.0943 57.6981 66.0943 57.6551 66.0943C57.6264 66.0943 57.5977 66.0943 57.569 66.0943C57.4973 66.0943 57.4328 66.0871 57.3754 66.0728C57.318 66.0728 57.2535 66.0728 57.1818 66.0728C50.857 65.9294 44.984 64.2299 39.5627 60.9742L39.5412 60.9527C34.6219 58.0126 30.6923 54.083 27.7522 49.1637C24.5396 43.8141 22.8401 38.0128 22.6536 31.7598C22.6393 31.6594 22.6249 31.559 22.6106 31.4586C22.6106 31.3582 22.6106 31.2506 22.6106 31.1359C22.6106 30.9351 22.6178 30.7845 22.6321 30.6841V30.6626C22.7038 29.0133 23.1556 27.5074 23.9874 26.1449C24.8193 24.7824 25.9021 23.6996 27.2359 22.8965C27.5227 22.7244 27.8382 22.6598 28.1824 22.7028C28.5266 22.7315 28.8206 22.8678 29.0645 23.1116L40.1221 34.1692C40.6671 34.7285 40.7388 35.3381 40.3372 35.9978C39.7492 36.9874 38.9962 37.8479 38.0783 38.5793C37.1605 39.2964 36.1422 39.8343 35.0235 40.1928C34.4642 40.3649 34.077 40.7235 33.8618 41.2685C33.6467 41.8134 33.6969 42.3441 34.0124 42.8604C34.0268 42.8604 34.0339 42.8676 34.0339 42.8819C36.974 47.8012 40.9037 51.7381 45.823 54.6925H45.8445L45.866 54.714C46.368 55.0152 46.8915 55.0582 47.4364 54.8431C47.9814 54.628 48.3472 54.2407 48.5336 53.6814C48.8778 52.5771 49.4085 51.566 50.1256 50.6481C50.857 49.7302 51.7175 48.9701 52.7071 48.3677C53.0083 48.1956 53.3238 48.1311 53.6537 48.1741C53.9979 48.2028 54.2919 48.339 54.5357 48.5828L65.5933 59.6404Z" fill="white"/>
</svg>
