<svg width="17" height="17" viewBox="0 0 17 17" fill="none" xmlns="http://www.w3.org/2000/svg">
<path fill-rule="evenodd" clip-rule="evenodd" d="M13.4479 12.0029C13.243 12.5828 12.4287 13.0625 11.7793 13.2028C11.3348 13.2972 10.755 13.3718 8.80175 12.5624C6.6079 11.6535 3.5615 8.41583 3.5615 6.26128C3.5615 5.16445 4.1939 3.88726 5.29975 3.88726C5.83185 3.88726 5.94915 3.89763 6.12425 4.31765C6.3291 4.8125 6.8289 6.03171 6.8884 6.15669C7.13405 6.66939 6.63849 6.96953 6.27894 7.41592C6.16419 7.55025 6.03415 7.69554 6.1795 7.94551C6.324 8.19038 6.8238 9.00494 7.5582 9.65879C8.5068 10.5039 9.27605 10.7738 9.55145 10.8885C9.7563 10.9736 10.0011 10.9538 10.1507 10.7939C10.3403 10.589 10.5757 10.249 10.8154 9.91404C10.9845 9.67426 11.1996 9.64432 11.4249 9.72935C11.577 9.78206 13.5107 10.6801 13.5923 10.8238C13.6527 10.9284 13.6527 11.4231 13.4479 12.0029ZM8.5017 0H8.49745C3.81139 0 0 3.81255 0 8.5C0 10.3587 0.599256 12.083 1.61841 13.4817L0.559304 16.6402L3.82586 15.5963C5.16971 16.4857 6.77365 17 8.5017 17C13.1877 17 17 13.1875 17 8.5C17 3.81255 13.1877 0 8.5017 0Z" fill="#EC3636"/>
</svg>
