<svg width="45" height="45" viewBox="0 0 45 45" fill="none" xmlns="http://www.w3.org/2000/svg">
<circle cx="22.5" cy="22.5" r="22" stroke="white"/>
<path d="M22.6769 21.784V29.248C21.2369 30.576 19.2209 31.24 16.6289 31.24C14.0209 31.24 12.0449 30.512 10.7009 29.056C9.37294 27.6 8.70894 25.448 8.70894 22.6C8.70894 20.872 9.04494 19.36 9.71694 18.064C10.3889 16.752 11.3409 15.744 12.5729 15.04C13.8049 14.32 15.2369 13.96 16.8689 13.96C18.0849 13.96 19.1809 14.112 20.1569 14.416C21.1329 14.704 21.9489 15.136 22.6049 15.712C22.4769 16.208 22.2289 16.688 21.8609 17.152C21.5089 17.616 21.2129 17.848 20.9729 17.848C20.8609 17.848 20.7569 17.832 20.6609 17.8C20.5809 17.768 20.4609 17.704 20.3009 17.608C19.7569 17.256 19.2049 17 18.6449 16.84C18.0849 16.68 17.4769 16.6 16.8209 16.6C15.4129 16.6 14.3409 17.112 13.6049 18.136C12.8689 19.16 12.5009 20.648 12.5009 22.6C12.5009 26.6 13.8609 28.6 16.5809 28.6C17.7329 28.6 18.5489 28.424 19.0289 28.072V24.328H17.5649C17.0689 24.328 16.7169 24.144 16.5089 23.776C16.3009 23.392 16.1969 22.728 16.1969 21.784H22.6769ZM37.1381 24.352H33.0821V28.312H29.3861V24.352H25.3061V20.848H29.3861V16.888H33.0821V20.848H37.1381V24.352Z" fill="white"/>
</svg>
