<svg width="45" height="45" viewBox="0 0 45 45" fill="none" xmlns="http://www.w3.org/2000/svg">
<path d="M36.3984 30.0311C36.3626 29.9651 36.3292 29.9103 36.2983 29.8665C35.7855 29.0762 34.8056 28.1062 33.3591 26.9562L33.3286 26.9299L33.3133 26.917L33.2978 26.9038H33.2823C32.6258 26.3683 32.2101 26.0082 32.036 25.8239C31.7175 25.4727 31.6461 25.1173 31.8202 24.7571C31.9432 24.485 32.4052 23.9104 33.2051 23.0324C33.6259 22.5671 33.9592 22.1942 34.2053 21.9132C35.9802 19.8941 36.7496 18.6038 36.5136 18.042L36.4219 17.9107C36.3603 17.8316 36.2013 17.7593 35.9451 17.6933C35.6884 17.6275 35.3602 17.6166 34.96 17.6605L30.5283 17.6867C30.4565 17.6649 30.354 17.667 30.2205 17.6933C30.0871 17.7197 30.0203 17.733 30.0203 17.733L29.9432 17.7659L29.882 17.8056C29.8307 17.8317 29.7742 17.8778 29.7126 17.9437C29.6514 18.0093 29.6001 18.0863 29.5591 18.1741C29.0767 19.2363 28.5281 20.2238 27.9124 21.1367C27.5328 21.6811 27.1842 22.1528 26.8658 22.5523C26.5479 22.9516 26.2812 23.2458 26.0659 23.4344C25.8503 23.6231 25.6557 23.7744 25.481 23.8886C25.3065 24.0029 25.1733 24.0512 25.0811 24.0335C24.9887 24.0158 24.9016 23.9983 24.8192 23.9808C24.6757 23.9017 24.5603 23.7942 24.4732 23.6582C24.3858 23.5221 24.3269 23.3509 24.2962 23.1446C24.2656 22.9382 24.2474 22.7606 24.2423 22.6113C24.2375 22.4622 24.2397 22.2513 24.2501 21.9792C24.2608 21.7069 24.2656 21.5227 24.2656 21.4262C24.2656 21.0925 24.2732 20.7305 24.2884 20.3398C24.3039 19.9492 24.3165 19.6397 24.327 19.4117C24.3375 19.1834 24.3423 18.9419 24.3423 18.6874C24.3423 18.4328 24.3242 18.2331 24.2884 18.0882C24.253 17.9435 24.1988 17.803 24.1273 17.6668C24.0553 17.5308 23.95 17.4255 23.8118 17.3508C23.6733 17.2762 23.5012 17.217 23.2963 17.173C22.7525 17.0677 22.0601 17.0107 21.2187 17.0019C19.3107 16.9843 18.0847 17.0898 17.541 17.318C17.3256 17.4145 17.1306 17.5462 16.9563 17.7129C16.7716 17.9061 16.7458 18.0115 16.8792 18.0289C17.4948 18.1078 17.9306 18.2965 18.1871 18.595L18.2795 18.7531C18.3514 18.8672 18.4232 19.0692 18.4951 19.3589C18.5668 19.6485 18.6131 19.9689 18.6335 20.3199C18.6847 20.9608 18.6847 21.5094 18.6335 21.9658C18.5821 22.4224 18.5336 22.7778 18.4873 23.0324C18.441 23.287 18.3718 23.4933 18.2795 23.6513C18.1871 23.8093 18.1256 23.9058 18.0948 23.9409C18.064 23.9759 18.0384 23.998 18.018 24.0067C17.8846 24.0504 17.746 24.0727 17.6024 24.0727C17.4587 24.0727 17.2844 24.0112 17.0792 23.8882C16.8742 23.7653 16.6613 23.5964 16.4407 23.3813C16.2201 23.1661 15.9713 22.8655 15.6942 22.4793C15.4174 22.0931 15.1301 21.6366 14.8326 21.1099L14.5864 20.728C14.4326 20.4822 14.2224 20.1244 13.9556 19.6549C13.6887 19.1852 13.4528 18.7308 13.2477 18.2919C13.1658 18.1075 13.0426 17.9672 12.8785 17.8706L12.8015 17.831C12.7503 17.796 12.6681 17.7587 12.5553 17.7191C12.4424 17.6795 12.3246 17.6511 12.2014 17.6336L7.98503 17.6598C7.55417 17.6598 7.26183 17.7433 7.1079 17.9101L7.0463 17.989C7.01552 18.033 7 18.1032 7 18.1998C7 18.2964 7.03078 18.4149 7.09238 18.5552C7.70789 19.7931 8.37724 20.9869 9.10044 22.1368C9.82363 23.2868 10.4521 24.2131 10.9854 24.9149C11.5188 25.6173 12.0625 26.2802 12.6165 26.9032C13.1706 27.5266 13.5373 27.926 13.7167 28.1015C13.8963 28.2773 14.0374 28.4087 14.14 28.4965L14.5248 28.8125C14.771 29.0232 15.1325 29.2755 15.6096 29.5696C16.0867 29.8638 16.615 30.1534 17.1946 30.4389C17.7743 30.724 18.4487 30.9566 19.2182 31.1365C19.9876 31.3166 20.7365 31.3889 21.4649 31.354H23.2345C23.5935 31.3275 23.8654 31.2309 24.0502 31.0642L24.1114 30.9983C24.1526 30.9459 24.1911 30.8645 24.2267 30.7549C24.2627 30.6452 24.2806 30.5243 24.2806 30.3928C24.2701 30.0154 24.3037 29.6753 24.3804 29.3725C24.4571 29.0698 24.5445 28.8415 24.6423 28.6878C24.74 28.5342 24.8503 28.4046 24.973 28.2996C25.096 28.1943 25.1836 28.1305 25.2351 28.1085C25.2862 28.0864 25.327 28.0715 25.3577 28.0625C25.6039 27.9923 25.8937 28.0602 26.2274 28.2667C26.5609 28.473 26.8736 28.7277 27.1662 29.0305C27.4586 29.3335 27.8099 29.6734 28.2202 30.0508C28.6307 30.4284 28.9897 30.709 29.2973 30.8936L29.605 31.0516C29.8104 31.157 30.0771 31.2536 30.4055 31.3414C30.7332 31.4291 31.0204 31.4511 31.267 31.4072L35.2062 31.3546C35.5958 31.3546 35.899 31.2994 36.114 31.1899C36.3295 31.0802 36.4575 30.9593 36.4988 30.8278C36.54 30.6962 36.5422 30.5468 36.5066 30.3799C36.4701 30.2133 36.4342 30.0969 36.3984 30.0311Z" fill="white"/>
<circle cx="22.5" cy="22.5" r="22" stroke="white"/>
</svg>
