<svg width="31" height="15" viewBox="0 0 31 15" fill="none" xmlns="http://www.w3.org/2000/svg">
<path d="M29.9904 13.2078C29.9547 13.1418 29.9213 13.0871 29.8903 13.0432C29.3775 12.253 28.3976 11.283 26.9512 10.133L26.9206 10.1067L26.9053 10.0937L26.8898 10.0805H26.8743C26.2178 9.54502 25.8021 9.18496 25.628 9.00062C25.3095 8.64946 25.2381 8.29402 25.4122 7.93387C25.5352 7.66177 25.9972 7.08712 26.7972 6.20914C27.218 5.74384 27.5512 5.37091 27.7973 5.08995C29.5722 3.07084 30.3417 1.7806 30.1056 1.21872L30.0139 1.08742C29.9523 1.00837 29.7933 0.936053 29.5372 0.870102C29.2804 0.80429 28.9522 0.793406 28.552 0.837266L24.1204 0.863461C24.0486 0.841693 23.9461 0.843722 23.8125 0.870102C23.6791 0.896483 23.6124 0.90972 23.6124 0.90972L23.5353 0.942695L23.474 0.982311C23.4227 1.00851 23.3663 1.05458 23.3047 1.12044C23.2434 1.18607 23.1921 1.26309 23.1512 1.35085C22.6687 2.41303 22.1201 3.40059 21.5045 4.31348C21.1249 4.85783 20.7762 5.32959 20.4579 5.72903C20.1399 6.12834 19.8732 6.42253 19.6579 6.61112C19.4423 6.79988 19.2478 6.95111 19.073 7.06535C18.8986 7.17963 18.7654 7.22792 18.6732 7.21026C18.5807 7.19259 18.4937 7.17507 18.4113 7.15754C18.2678 7.07849 18.1523 6.97099 18.0653 6.83493C17.9778 6.69888 17.919 6.52764 17.8882 6.32135C17.8576 6.11492 17.8395 5.93736 17.8343 5.78807C17.8295 5.63896 17.8317 5.42806 17.8421 5.15595C17.8528 4.88371 17.8576 4.69951 17.8576 4.60293C17.8576 4.2693 17.8652 3.90722 17.8804 3.51658C17.896 3.12595 17.9085 2.81644 17.919 2.58843C17.9295 2.36018 17.9343 2.1187 17.9343 1.86412C17.9343 1.60954 17.9162 1.40989 17.8804 1.26498C17.8451 1.12025 17.7908 0.979775 17.7193 0.843584C17.6473 0.707531 17.542 0.602286 17.4038 0.527572C17.2654 0.452951 17.0932 0.393733 16.8884 0.349735C16.3446 0.244444 15.6522 0.187486 14.8108 0.178631C12.9028 0.161106 11.6767 0.266535 11.133 0.494781C10.9176 0.591217 10.7227 0.722981 10.5483 0.889657C10.3636 1.08285 10.3379 1.18828 10.4712 1.20562C11.0868 1.28453 11.5227 1.4733 11.7792 1.77174L11.8716 1.92988C11.9435 2.04398 12.0153 2.24599 12.0871 2.53562C12.1589 2.82525 12.2052 3.14564 12.2255 3.49661C12.2767 4.13754 12.2767 4.68618 12.2255 5.14258C12.1742 5.59916 12.1257 5.9546 12.0794 6.20918C12.0331 6.46376 11.9639 6.67006 11.8716 6.82802C11.7792 6.98602 11.7177 7.0826 11.6868 7.11765C11.656 7.1527 11.6304 7.17479 11.61 7.18346C11.4767 7.22718 11.338 7.24946 11.1945 7.24946C11.0507 7.24946 10.8764 7.18793 10.6713 7.06498C10.4662 6.94202 10.2534 6.77313 10.0328 6.55803C9.81216 6.34288 9.56337 6.04223 9.28629 5.65603C9.00942 5.26982 8.72214 4.81337 8.42463 4.28669L8.17848 3.90473C8.0246 3.659 7.8144 3.3012 7.54766 2.83166C7.28076 2.36193 7.04486 1.90756 6.83978 1.46864C6.7578 1.2843 6.63464 1.14396 6.47052 1.04739L6.3935 1.00777C6.3423 0.972719 6.26011 0.9355 6.14736 0.895837C6.03444 0.85622 5.91662 0.82781 5.79341 0.810331L1.57707 0.836527C1.14621 0.836527 0.853875 0.92005 0.699944 1.08686L0.638339 1.16577C0.607563 1.20973 0.592041 1.27992 0.592041 1.37654C0.592041 1.47312 0.622816 1.59164 0.684421 1.73199C1.29993 2.96984 1.96928 4.16364 2.69248 5.31359C3.41567 6.46353 4.04412 7.38985 4.57743 8.09169C5.11085 8.79405 5.65457 9.45693 6.20858 10.08C6.76259 10.7033 7.12931 11.1028 7.30874 11.2782C7.48838 11.454 7.62948 11.5855 7.73205 11.6732L8.11682 11.9892C8.36302 12.1999 8.72457 12.4523 9.20161 12.7463C9.67877 13.0405 10.207 13.3301 10.7866 13.6157C11.3663 13.9007 12.0408 14.1334 12.8103 14.3133C13.5796 14.4934 14.3285 14.5656 15.0569 14.5308H16.8266C17.1855 14.5043 17.4574 14.4077 17.6422 14.241L17.7034 14.175C17.7446 14.1226 17.7832 14.0412 17.8187 13.9317C17.8547 13.822 17.8726 13.7011 17.8726 13.5696C17.8621 13.1922 17.8957 12.8521 17.9724 12.5492C18.0491 12.2465 18.1366 12.0183 18.2343 11.8646C18.3321 11.711 18.4423 11.5814 18.5651 11.4763C18.688 11.371 18.7757 11.3072 18.8271 11.2853C18.8782 11.2632 18.919 11.2482 18.9498 11.2392C19.196 11.169 19.4857 11.237 19.8195 11.4435C20.1529 11.6498 20.4657 11.9045 20.7582 12.2072C21.0506 12.5102 21.4019 12.8502 21.8122 13.2276C22.2227 13.6051 22.5817 13.8857 22.8893 14.0704L23.197 14.2284C23.4025 14.3338 23.6692 14.4304 23.9975 14.5181C24.3253 14.6059 24.6124 14.6278 24.859 14.5839L28.7982 14.5314C29.1879 14.5314 29.491 14.4762 29.7061 14.3666C29.9216 14.2569 30.0496 14.136 30.0909 14.0045C30.132 13.8729 30.1342 13.7236 30.0987 13.5566C30.0622 13.3901 30.0262 13.2736 29.9904 13.2078Z" fill="white" fill-opacity="0.8"/>
</svg>
