<svg width="25" height="16" viewBox="0 0 25 16" fill="none" xmlns="http://www.w3.org/2000/svg">
<path d="M24.592 13.1496C24.592 13.595 24.4404 14.0079 24.1974 14.3712L16.4327 7.19363L24.1132 1.64185C24.412 2.03358 24.592 2.49373 24.592 2.99098V13.1496ZM12.296 8.49686L22.9832 0.77117C22.5447 0.572815 22.0508 0.451172 21.5181 0.451172H3.07398C2.54059 0.451172 2.04658 0.572815 1.6098 0.77117L12.296 8.49686ZM15.2755 8.02947L12.8017 9.8189C12.657 9.92304 12.4769 9.97505 12.296 9.97505C12.1151 9.97505 11.9349 9.92304 11.7902 9.8189L9.31586 8.02939L1.45293 15.2987C1.92423 15.543 2.47658 15.6893 3.07393 15.6893H21.5181C22.1153 15.6893 22.6679 15.543 23.1391 15.2987L15.2755 8.02947ZM0.478854 1.64181C0.180128 2.03354 0 2.49369 0 2.99098V13.1496C0 13.595 0.150934 14.0079 0.394771 14.3712L8.15856 7.19242L0.478854 1.64181Z" fill="white" fill-opacity="0.8"/>
</svg>
