<?xml version="1.0" encoding="UTF-8"?>
<svg id="_Слой_1" data-name="Слой 1" xmlns="http://www.w3.org/2000/svg" viewBox="0 0 160.26 41.54">
  <defs>
    <style>
      .cls-1 {
        font-family: ForestSmooth-Regular, ForestSmooth;
        font-size: 36px;
      }

      .cls-1, .cls-2 {
        fill: #ed6b1d;
      }

      .cls-3 {
        letter-spacing: -.08em;
      }

      .cls-4 {
        fill: #1d1d1b;
      }

      .cls-4, .cls-5, .cls-2 {
        stroke-width: 0px;
      }

      .cls-5 {
        fill: #fff;
      }
    </style>
  </defs>
  <circle class="cls-2" cx="106.27" cy="21.98" r="18.94"/>
  <g>
    <path class="cls-5" d="M0,27.94h.83c1.15,0,2.23-.22,3.22-.65,1-.43,1.87-1.03,2.61-1.78.74-.76,1.33-1.63,1.76-2.63.43-1,.65-2.07.65-3.22v-9.9h1.69v9.9c0,1.37-.26,2.65-.77,3.85-.52,1.2-1.22,2.25-2.12,3.15-.9.9-1.96,1.61-3.17,2.14-1.21.53-2.5.79-3.87.79h-.83v-1.66ZM1.66,9.76v11.3H0v-11.3h1.66Z"/>
    <path class="cls-5" d="M15.19,9.8v19.8h-1.55V9.8h1.55Z"/>
    <path class="cls-5" d="M23.4,20.53c-.72,0-1.4-.14-2.05-.41s-1.22-.65-1.71-1.13c-.49-.48-.88-1.04-1.15-1.69-.28-.65-.41-1.34-.41-2.09s.14-1.44.41-2.09c.28-.65.66-1.22,1.15-1.71.49-.49,1.06-.88,1.71-1.15.65-.28,1.33-.41,2.05-.41h9.61v1.62h-9.61c-.5,0-.98.1-1.44.29-.46.19-.85.46-1.19.81-.34.35-.6.75-.79,1.21-.19.46-.29.94-.29,1.44s.1.98.29,1.44c.19.46.46.85.79,1.19.34.34.73.6,1.19.79.46.19.94.29,1.44.29h4.28c.72,0,1.4.14,2.05.41s1.22.66,1.71,1.15c.49.49.88,1.06,1.15,1.71s.41,1.34.41,2.09-.14,1.4-.41,2.05-.66,1.22-1.15,1.71-1.06.88-1.71,1.15c-.65.28-1.33.41-2.05.41h-9.61v-1.62h9.61c.5,0,.98-.1,1.44-.29.46-.19.85-.46,1.19-.79s.6-.73.79-1.19c.19-.46.29-.94.29-1.44s-.1-.98-.29-1.44c-.19-.46-.46-.86-.79-1.21-.34-.35-.73-.62-1.19-.81-.46-.19-.94-.29-1.44-.29h-4.28Z"/>
    <path class="cls-5" d="M37.44,9.8v19.8h-1.55V9.8h1.55Z"/>
    <path class="cls-5" d="M41.09,15.85c.52-1.2,1.22-2.25,2.12-3.15s1.95-1.61,3.15-2.12,2.48-.77,3.85-.77,2.65.26,3.85.77c1.2.52,2.25,1.22,3.15,2.12s1.61,1.95,2.12,3.15c.52,1.2.77,2.48.77,3.85s-.26,2.65-.77,3.85-1.22,2.25-2.12,3.15-1.95,1.61-3.15,2.12c-1.2.52-2.48.77-3.85.77s-2.65-.26-3.85-.77-2.25-1.22-3.15-2.12-1.61-1.95-2.12-3.15-.77-2.48-.77-3.85.26-2.65.77-3.85ZM53.42,27.3c1.01-.43,1.88-1.02,2.63-1.76s1.33-1.62,1.76-2.63c.43-1.01.65-2.08.65-3.2s-.22-2.2-.65-3.2-1.02-1.88-1.76-2.63c-.74-.74-1.62-1.33-2.63-1.76s-2.08-.65-3.2-.65-2.2.22-3.2.65c-1.01.43-1.88,1.02-2.63,1.76s-1.33,1.62-1.76,2.63c-.43,1.01-.65,2.08-.65,3.2s.22,2.2.65,3.2c.43,1.01,1.02,1.88,1.76,2.63.74.74,1.62,1.33,2.63,1.76,1.01.43,2.08.65,3.2.65s2.2-.22,3.2-.65Z"/>
    <path class="cls-5" d="M63.77,15.9c.52-1.19,1.22-2.23,2.12-3.13s1.94-1.61,3.13-2.12c1.19-.52,2.47-.77,3.83-.77s2.65.26,3.83.77c1.19.52,2.23,1.22,3.13,2.12s1.61,1.94,2.12,3.13c.52,1.19.77,2.47.77,3.83v9.86h-1.66v-9.86c0-1.13-.22-2.19-.65-3.19-.43-1-1.02-1.87-1.76-2.61-.74-.74-1.61-1.33-2.61-1.76-1-.43-2.06-.65-3.19-.65s-2.19.22-3.19.65c-1,.43-1.87,1.02-2.61,1.76s-1.33,1.61-1.76,2.61c-.43,1-.65,2.06-.65,3.19v9.86h-1.66v-9.86c0-1.37.26-2.65.77-3.83Z"/>
    <path class="cls-4" d="M115.79,23.55c-.52,1.2-1.22,2.25-2.12,3.15-.9.9-1.95,1.61-3.15,2.14s-2.48.79-3.85.79c-1.73,0-3.31-.4-4.75-1.21-1.44-.8-2.62-1.88-3.53-3.22v13.5h-1.62v-19.84c.12-1.27.46-2.46,1.01-3.56.55-1.1,1.27-2.07,2.16-2.9.89-.83,1.91-1.48,3.06-1.94,1.15-.47,2.38-.7,3.67-.7,1.37,0,2.65.26,3.85.77,1.2.52,2.25,1.22,3.15,2.12.9.9,1.61,1.96,2.12,3.17.52,1.21.77,2.5.77,3.87s-.26,2.65-.77,3.85ZM114.26,16.5c-.43-1.01-1.02-1.88-1.76-2.63-.74-.74-1.62-1.33-2.63-1.76-1.01-.43-2.08-.65-3.2-.65s-2.23.22-3.22.65c-1,.43-1.87,1.02-2.63,1.76-.76.74-1.35,1.62-1.78,2.63-.43,1.01-.65,2.08-.65,3.2s.22,2.2.65,3.2c.43,1.01,1.03,1.88,1.78,2.63.76.74,1.63,1.33,2.63,1.76,1,.43,2.07.65,3.22.65s2.2-.22,3.2-.65c1.01-.43,1.88-1.02,2.63-1.76.74-.74,1.33-1.62,1.76-2.63.43-1.01.65-2.08.65-3.2s-.22-2.2-.65-3.2Z"/>
  </g>
  <text class="cls-1" transform="translate(126.89 30.6)"><tspan class="cls-3" x="0" y="0">r</tspan><tspan x="10.69" y="0">o</tspan></text>
</svg>