<svg width="50" height="50" viewBox="0 0 50 50" fill="none" xmlns="http://www.w3.org/2000/svg">
<path d="M25 4.6875C13.7998 4.6875 4.6875 13.7998 4.6875 25C4.6875 36.2002 13.7998 45.3125 25 45.3125C36.2002 45.3125 45.3125 36.2002 45.3125 25C45.3125 13.7998 36.2002 4.6875 25 4.6875ZM20.0957 16.0957C21.333 14.7842 23.0742 14.0625 25 14.0625C26.9258 14.0625 28.6514 14.7891 29.8936 16.1074C31.1523 17.4434 31.7646 19.2383 31.6201 21.168C31.3311 25 28.3623 28.125 25 28.125C21.6377 28.125 18.6631 25 18.3799 21.167C18.2363 19.2217 18.8477 17.4209 20.0957 16.0957ZM25 42.1875C22.7055 42.189 20.4341 41.7297 18.3205 40.8369C16.2069 39.9442 14.294 38.6361 12.6953 36.9902C13.6109 35.6845 14.7775 34.5744 16.127 33.7246C18.6162 32.1289 21.7666 31.25 25 31.25C28.2334 31.25 31.3838 32.1289 33.8701 33.7246C35.2206 34.574 36.3883 35.6842 37.3047 36.9902C35.7062 38.6363 33.7934 39.9445 31.6797 40.8373C29.566 41.7301 27.2945 42.1892 25 42.1875Z" fill="black"/>
</svg>
