<svg width="79" height="44" viewBox="0 0 79 44" fill="none" xmlns="http://www.w3.org/2000/svg">
<g clip-path="url(#clip0_29_79)">
<path d="M57.5857 0.633276C46.0957 0.633276 36.7878 10.1957 36.7878 22C36.7878 33.8043 46.0957 43.3667 57.5857 43.3667C69.0758 43.3667 78.3837 33.8043 78.3837 22C78.3837 10.1957 69.0758 0.633276 57.5857 0.633276ZM57.4625 37.0593C49.3011 37.0593 42.6808 30.2579 42.6808 21.8733C42.6808 13.4888 49.3011 6.68739 57.4625 6.68739C65.6238 6.68739 72.2441 13.4888 72.2441 21.8733C72.2441 30.2579 65.6238 37.0593 57.4625 37.0593Z" fill="#EC3636" stroke="#1D1D1B" stroke-miterlimit="10"/>
<path d="M57.4624 5.5475C48.6969 5.5475 41.5835 12.8555 41.5835 21.8607C41.5835 30.8659 48.6969 38.1739 57.4624 38.1739C66.2278 38.1739 73.3413 30.8659 73.3413 21.8607C73.3413 12.8555 66.2278 5.5475 57.4624 5.5475ZM57.4624 37.0593C49.301 37.0593 42.6807 30.2579 42.6807 21.8733C42.6807 13.4888 49.301 6.68739 57.4624 6.68739C65.6238 6.68739 72.2441 13.4888 72.2441 21.8733C72.2441 30.2579 65.6238 37.0593 57.4624 37.0593Z" fill="#7F7F7E"/>
<path d="M35.9001 21.7214C35.9001 21.81 35.9001 21.886 35.9001 21.9747C35.9001 23.1779 35.9988 24.3431 36.1714 25.4957C36.4549 27.3322 36.9604 29.08 37.6631 30.7265C38.2302 32.0564 38.9206 33.323 39.7219 34.5009C41.1027 36.54 42.8163 38.3132 44.7765 39.7317L46.9587 41.1249C48.9065 42.2015 51.0393 42.9614 53.2831 43.3541V43.506H27.7634V39.7317H37.4165C38.7726 39.7317 39.8699 38.5792 39.8699 37.1733V37.0593C39.8699 35.6408 38.7726 34.5009 37.4165 34.5009H27.7634V30.7265H30.3277C31.6838 30.7265 32.7811 29.574 32.7811 28.1681V28.0541C32.7811 26.6356 31.6838 25.4957 30.3277 25.4957H27.7634V21.7214H31.6222C32.6824 21.6074 33.6317 21.1134 34.3468 20.3661C35.1728 19.5176 35.6782 18.327 35.6782 17.0225C35.6782 14.4134 33.644 12.2982 31.1414 12.2982H27.7634V8.42257H34.9015C35.481 8.42257 35.9988 8.18192 36.3809 7.78929C36.7631 7.39666 36.9974 6.85204 36.9974 6.25676C36.9974 5.05354 36.0604 4.0783 34.9139 4.0783H27.7758V0.291307H53.2954V0.582614C51.0393 0.96258 48.9065 1.73518 46.971 2.81174L44.9861 4.06563C43.2848 5.28152 41.7684 6.73805 40.4863 8.4099C39.5616 9.60046 38.7603 10.905 38.1069 12.2855C36.7385 15.1226 35.9618 18.327 35.9248 21.7087L35.9001 21.7214Z" fill="#EC3636"/>
<path d="M31.6222 21.7214C31.4619 21.734 31.3016 21.7467 31.1414 21.7467H5.68335V21.7214H31.6222Z" fill="#EC3636"/>
<path d="M9.43124 30.7265H2.73696C1.81097 30.7265 1.0603 31.4977 1.0603 32.4491V32.7784C1.0603 33.7297 1.81097 34.5009 2.73696 34.5009H9.43124C10.3572 34.5009 11.1079 33.7297 11.1079 32.7784V32.4491C11.1079 31.4977 10.3572 30.7265 9.43124 30.7265Z" fill="#EC3636"/>
<path d="M14.72 0.291307H11.6996C10.7257 0.291307 9.94897 1.1019 9.94897 2.08981V2.25446C9.94897 3.25504 10.738 4.05297 11.6996 4.05297H18.2336H44.9861L46.7737 2.79908V0.291307H14.72Z" fill="#EC3636"/>
<path d="M36.1713 25.483C35.9987 24.3431 35.9124 23.1652 35.9124 21.962C35.9124 21.8733 35.9124 21.7974 35.9124 21.7087H6.12709C5.15315 21.7087 4.37646 22.5193 4.37646 23.5072V23.6719C4.37646 24.6724 5.16548 25.4704 6.12709 25.4704H12.6611H36.1713V25.483Z" fill="#EC3636"/>
<path d="M8.28464 8.4099H1.75062C0.776685 8.4099 0 9.22049 0 10.2084V10.4744C0 11.475 0.789014 12.2729 1.75062 12.2729H38.0699C38.6863 10.8923 39.4384 9.58779 40.289 8.39724H8.28464V8.4099Z" fill="#EC3636"/>
<path d="M37.7001 30.7265H13.6845C12.7105 30.7265 11.9338 31.5371 11.9338 32.525V32.6897C11.9338 33.6903 12.7229 34.4882 13.6845 34.4882H39.6356C38.8836 33.3103 38.2302 32.0438 37.7001 30.7139V30.7265Z" fill="#EC3636"/>
<path d="M46.9587 41.1249L44.8382 39.7317H20.6747C19.7008 39.7317 18.9241 40.5423 18.9241 41.5302V41.6949C18.9241 42.6954 19.7131 43.4934 20.6747 43.4934H27.2087H46.9587V41.1123V41.1249Z" fill="#EC3636"/>
<path d="M55.6009 7.72596V18.6056H59.5829V7.68797L60.8774 6.35809V5.1422H59.5829V4.05296H55.6009V5.1422H54.2817V6.35809L55.6009 7.7133V7.72596Z" fill="#EC3636"/>
<path d="M74.8946 19.0616L73.7974 15.1353L72.7865 15.4393L72.4166 14.1347L71.2824 14.4767C70.9249 15.1353 70.6537 15.6419 70.3701 16.1612L60.1992 19.1756L61.2964 23.1019L71.5043 20.0748C71.9974 20.3535 72.4782 20.6321 73.107 20.9868L74.2412 20.6448L73.8837 19.3656L74.8946 19.0616Z" fill="#EC3636"/>
<path d="M68.225 33.171C67.5099 32.9937 66.9552 32.867 66.4004 32.7277L60.8403 23.4692L57.6966 25.4577L54.5529 23.4692L48.9928 32.7277C48.438 32.867 47.8832 32.9937 47.1682 33.171L46.5518 34.2096L47.686 34.9188L47.1312 35.8434L50.5215 37.9839L51.0763 37.0593L52.1735 37.7559L52.7899 36.7173C52.6296 36.0081 52.494 35.4508 52.3707 34.8935L57.7089 26.0023L63.0471 34.8935C62.9238 35.4508 62.7882 36.0081 62.6279 36.7173L63.2443 37.7559L64.3416 37.0593L64.8963 37.9839L68.2866 35.8434L67.7318 34.9188L68.8661 34.2096L68.2496 33.171H68.225Z" fill="#EC3636"/>
<path d="M54.9844 19.1629L44.8136 16.1485C44.53 15.6292 44.2588 15.1226 43.9013 14.464L42.7671 14.1221L42.3972 15.4266L41.3863 15.1226L40.2891 19.0489L41.3 19.3529L40.9425 20.6321L42.0767 20.9741C42.7054 20.6195 43.1862 20.3408 43.6794 20.0622L53.8872 23.0892L54.9844 19.1629Z" fill="#EC3636"/>
<path d="M57.5856 17.985C55.4281 17.985 53.6775 19.7835 53.6775 22C53.6775 24.2165 55.4281 26.015 57.5856 26.015C59.743 26.015 61.4937 24.2165 61.4937 22C61.4937 19.7835 59.743 17.985 57.5856 17.985ZM57.5856 24.3558C56.3281 24.3558 55.2925 23.3045 55.2925 22C55.2925 20.6955 56.3158 19.6442 57.5856 19.6442C58.8554 19.6442 59.8786 20.6955 59.8786 22C59.8786 23.3045 58.8554 24.3558 57.5856 24.3558Z" fill="#EC3636"/>
</g>
<defs>
<clipPath id="clip0_29_79">
<rect width="79" height="44" fill="white"/>
</clipPath>
</defs>
</svg>
