<svg width="91" height="68" viewBox="0 0 91 68" fill="none" xmlns="http://www.w3.org/2000/svg">
<g clip-path="url(#clip0_29_78)">
<path d="M64.5857 0.633276C53.0957 0.633276 43.7878 10.1957 43.7878 22C43.7878 33.8043 53.0957 43.3667 64.5857 43.3667C76.0758 43.3667 85.3837 33.8043 85.3837 22C85.3837 10.1957 76.0758 0.633276 64.5857 0.633276ZM64.4625 37.0593C56.3011 37.0593 49.6808 30.2579 49.6808 21.8733C49.6808 13.4888 56.3011 6.68739 64.4625 6.68739C72.6238 6.68739 79.2441 13.4888 79.2441 21.8733C79.2441 30.2579 72.6238 37.0593 64.4625 37.0593Z" fill="#282825" stroke="#1D1D1B" stroke-miterlimit="10"/>
<path d="M64.4624 5.5475C55.6969 5.5475 48.5835 12.8555 48.5835 21.8607C48.5835 30.8659 55.6969 38.1739 64.4624 38.1739C73.2278 38.1739 80.3413 30.8659 80.3413 21.8607C80.3413 12.8555 73.2278 5.5475 64.4624 5.5475ZM64.4624 37.0593C56.301 37.0593 49.6807 30.2579 49.6807 21.8733C49.6807 13.4888 56.301 6.68739 64.4624 6.68739C72.6238 6.68739 79.2441 13.4888 79.2441 21.8733C79.2441 30.2579 72.6238 37.0593 64.4624 37.0593Z" fill="#7F7F7E"/>
<path d="M42.9001 21.7214C42.9001 21.81 42.9001 21.886 42.9001 21.9747C42.9001 23.1779 42.9988 24.3431 43.1714 25.4957C43.4549 27.3322 43.9604 29.08 44.6631 30.7265C45.2302 32.0564 45.9206 33.323 46.7219 34.5009C48.1027 36.54 49.8163 38.3132 51.7765 39.7317L53.9587 41.1249C55.9065 42.2015 58.0393 42.9614 60.2831 43.3541V43.506H34.7634V39.7317H44.4165C45.7726 39.7317 46.8699 38.5792 46.8699 37.1733V37.0593C46.8699 35.6408 45.7726 34.5009 44.4165 34.5009H34.7634V30.7265H37.3277C38.6838 30.7265 39.7811 29.574 39.7811 28.1681V28.0541C39.7811 26.6356 38.6838 25.4957 37.3277 25.4957H34.7634V21.7214H38.6222C39.6824 21.6074 40.6317 21.1134 41.3468 20.3661C42.1728 19.5176 42.6782 18.327 42.6782 17.0225C42.6782 14.4134 40.644 12.2982 38.1414 12.2982H34.7634V8.42257H41.9015C42.481 8.42257 42.9988 8.18192 43.3809 7.78929C43.7631 7.39666 43.9974 6.85204 43.9974 6.25676C43.9974 5.05354 43.0604 4.0783 41.9139 4.0783H34.7758V0.291307H60.2954V0.582614C58.0393 0.96258 55.9065 1.73518 53.971 2.81174L51.9861 4.06563C50.2848 5.28152 48.7684 6.73805 47.4863 8.4099C46.5616 9.60046 45.7603 10.905 45.1069 12.2855C43.7385 15.1226 42.9618 18.327 42.9248 21.7087L42.9001 21.7214Z" fill="#282825"/>
<path d="M38.6222 21.7214C38.4619 21.734 38.3016 21.7467 38.1414 21.7467H12.6833V21.7214H38.6222Z" fill="#282825"/>
<path d="M16.4312 30.7265H9.73696C8.81097 30.7265 8.0603 31.4977 8.0603 32.4491V32.7784C8.0603 33.7297 8.81097 34.5009 9.73696 34.5009H16.4312C17.3572 34.5009 18.1079 33.7297 18.1079 32.7784V32.4491C18.1079 31.4977 17.3572 30.7265 16.4312 30.7265Z" fill="#282825"/>
<path d="M21.72 0.291307H18.6996C17.7257 0.291307 16.949 1.1019 16.949 2.08981V2.25446C16.949 3.25504 17.738 4.05297 18.6996 4.05297H25.2336H51.9861L53.7737 2.79908V0.291307H21.72Z" fill="#282825"/>
<path d="M43.1713 25.483C42.9987 24.3431 42.9124 23.1652 42.9124 21.962C42.9124 21.8733 42.9124 21.7974 42.9124 21.7087H13.1271C12.1532 21.7087 11.3765 22.5193 11.3765 23.5072V23.6719C11.3765 24.6724 12.1655 25.4704 13.1271 25.4704H19.6611H43.1713V25.483Z" fill="#282825"/>
<path d="M15.2846 8.4099H8.75062C7.77669 8.4099 7 9.22049 7 10.2084V10.4744C7 11.475 7.78901 12.2729 8.75062 12.2729H45.0699C45.6863 10.8923 46.4384 9.58779 47.289 8.39724H15.2846V8.4099Z" fill="#282825"/>
<path d="M44.7001 30.7265H20.6845C19.7105 30.7265 18.9338 31.5371 18.9338 32.525V32.6897C18.9338 33.6903 19.7229 34.4882 20.6845 34.4882H46.6356C45.8836 33.3103 45.2302 32.0438 44.7001 30.7139V30.7265Z" fill="#282825"/>
<path d="M53.9587 41.1249L51.8382 39.7317H27.6747C26.7008 39.7317 25.9241 40.5423 25.9241 41.5302V41.6949C25.9241 42.6954 26.7131 43.4934 27.6747 43.4934H34.2087H53.9587V41.1123V41.1249Z" fill="#282825"/>
<path d="M62.6009 7.72596V18.6056H66.5829V7.68797L67.8774 6.35809V5.1422H66.5829V4.05296H62.6009V5.1422H61.2817V6.35809L62.6009 7.7133V7.72596Z" fill="#282825"/>
<path d="M81.8946 19.0616L80.7974 15.1353L79.7865 15.4393L79.4166 14.1347L78.2824 14.4767C77.9249 15.1353 77.6537 15.6419 77.3701 16.1612L67.1992 19.1756L68.2964 23.1019L78.5043 20.0748C78.9974 20.3535 79.4782 20.6321 80.107 20.9868L81.2412 20.6448L80.8837 19.3656L81.8946 19.0616Z" fill="#282825"/>
<path d="M75.225 33.171C74.5099 32.9937 73.9552 32.867 73.4004 32.7277L67.8403 23.4692L64.6966 25.4577L61.5529 23.4692L55.9928 32.7277C55.438 32.867 54.8832 32.9937 54.1682 33.171L53.5518 34.2096L54.686 34.9188L54.1312 35.8434L57.5215 37.9839L58.0763 37.0593L59.1735 37.7559L59.7899 36.7173C59.6296 36.0081 59.494 35.4508 59.3707 34.8935L64.7089 26.0023L70.0471 34.8935C69.9238 35.4508 69.7882 36.0081 69.6279 36.7173L70.2443 37.7559L71.3416 37.0593L71.8963 37.9839L75.2866 35.8434L74.7318 34.9188L75.8661 34.2096L75.2496 33.171H75.225Z" fill="#282825"/>
<path d="M61.9844 19.1629L51.8136 16.1485C51.53 15.6292 51.2588 15.1226 50.9013 14.464L49.7671 14.1221L49.3972 15.4266L48.3863 15.1226L47.2891 19.0489L48.3 19.3529L47.9425 20.6321L49.0767 20.9741C49.7054 20.6195 50.1862 20.3408 50.6794 20.0622L60.8872 23.0892L61.9844 19.1629Z" fill="#282825"/>
<path d="M64.5856 17.985C62.4281 17.985 60.6775 19.7835 60.6775 22C60.6775 24.2165 62.4281 26.015 64.5856 26.015C66.743 26.015 68.4937 24.2165 68.4937 22C68.4937 19.7835 66.743 17.985 64.5856 17.985ZM64.5856 24.3558C63.3281 24.3558 62.2925 23.3045 62.2925 22C62.2925 20.6955 63.3158 19.6442 64.5856 19.6442C65.8554 19.6442 66.8786 20.6955 66.8786 22C66.8786 23.3045 65.8554 24.3558 64.5856 24.3558Z" fill="#282825"/>
</g>
<path d="M8.672 59.732H3.744L2.33 62H0.384L6.754 52.2H8.56L10.996 62H9.19L8.672 59.732ZM8.336 58.304L7.342 53.992L4.64 58.304H8.336ZM18.4908 58.15C19.2001 58.3833 19.5548 58.8873 19.5548 59.662C19.5548 60.39 19.2561 60.964 18.6588 61.384C18.0708 61.7947 17.2495 62 16.1948 62H12.3168L13.8148 54.524H17.4128C18.2435 54.524 18.8828 54.6733 19.3308 54.972C19.7788 55.2707 20.0028 55.7047 20.0028 56.274C20.0028 56.7033 19.8675 57.0813 19.5968 57.408C19.3355 57.7347 18.9668 57.982 18.4908 58.15ZM14.8508 57.646H16.6848C17.1515 57.646 17.5248 57.548 17.8048 57.352C18.0941 57.156 18.2388 56.8993 18.2388 56.582C18.2388 56.0593 17.8468 55.798 17.0628 55.798H15.2288L14.8508 57.646ZM16.2368 60.726C16.7501 60.726 17.1561 60.628 17.4548 60.432C17.7535 60.2267 17.9028 59.9467 17.9028 59.592C17.9028 59.3213 17.8048 59.1253 17.6088 59.004C17.4221 58.8733 17.1281 58.808 16.7268 58.808H14.6268L14.2488 60.726H16.2368ZM28.1108 56.008H25.4508L24.2748 62H22.5248L23.7008 56.008H21.0968L21.3908 54.524H28.4048L28.1108 56.008ZM31.5721 62.098C30.8441 62.098 30.2047 61.9627 29.6541 61.692C29.1127 61.412 28.6927 61.0247 28.3941 60.53C28.0954 60.0353 27.9461 59.4613 27.9461 58.808C27.9461 57.9773 28.1327 57.2307 28.5061 56.568C28.8887 55.9053 29.4161 55.3873 30.0881 55.014C30.7694 54.6313 31.5347 54.44 32.3841 54.44C33.1121 54.44 33.7514 54.5753 34.3021 54.846C34.8527 55.1167 35.2774 55.4993 35.5761 55.994C35.8747 56.4887 36.0241 57.0627 36.0241 57.716C36.0241 58.5467 35.8327 59.2933 35.4501 59.956C35.0674 60.6187 34.5354 61.1413 33.8541 61.524C33.1821 61.9067 32.4214 62.098 31.5721 62.098ZM31.6841 60.6C32.1787 60.6 32.6174 60.4833 33.0001 60.25C33.3921 60.0073 33.7001 59.676 33.9241 59.256C34.1481 58.8267 34.2601 58.3413 34.2601 57.8C34.2601 57.212 34.0874 56.7547 33.7421 56.428C33.3967 56.092 32.9114 55.924 32.2861 55.924C31.7914 55.924 31.3481 56.0453 30.9561 56.288C30.5734 56.5213 30.2701 56.8527 30.0461 57.282C29.8221 57.702 29.7101 58.1827 29.7101 58.724C29.7101 59.312 29.8827 59.774 30.2281 60.11C30.5734 60.4367 31.0587 60.6 31.6841 60.6Z" fill="black"/>
<path d="M43.2525 56.974L45.7445 62H43.7985L41.7545 57.856H39.8365L39.0105 62H37.1905L39.1505 52.2H40.9705L40.1445 56.302H41.9225L45.5625 52.2H47.6065L43.2525 56.974ZM50.4256 62.098C49.6976 62.098 49.0582 61.9627 48.5076 61.692C47.9662 61.412 47.5462 61.0247 47.2476 60.53C46.9489 60.0353 46.7996 59.4613 46.7996 58.808C46.7996 57.9773 46.9862 57.2307 47.3596 56.568C47.7422 55.9053 48.2696 55.3873 48.9416 55.014C49.6229 54.6313 50.3882 54.44 51.2376 54.44C51.9656 54.44 52.6049 54.5753 53.1556 54.846C53.7062 55.1167 54.1309 55.4993 54.4296 55.994C54.7282 56.4887 54.8776 57.0627 54.8776 57.716C54.8776 58.5467 54.6862 59.2933 54.3036 59.956C53.9209 60.6187 53.3889 61.1413 52.7076 61.524C52.0356 61.9067 51.2749 62.098 50.4256 62.098ZM50.5376 60.6C51.0322 60.6 51.4709 60.4833 51.8536 60.25C52.2456 60.0073 52.5536 59.676 52.7776 59.256C53.0016 58.8267 53.1136 58.3413 53.1136 57.8C53.1136 57.212 52.9409 56.7547 52.5956 56.428C52.2502 56.092 51.7649 55.924 51.1396 55.924C50.6449 55.924 50.2016 56.0453 49.8096 56.288C49.4269 56.5213 49.1236 56.8527 48.8996 57.282C48.6756 57.702 48.5636 58.1827 48.5636 58.724C48.5636 59.312 48.7362 59.774 49.0816 60.11C49.4269 60.4367 49.9122 60.6 50.5376 60.6ZM64.04 54.524L62.542 62H60.792L61.982 56.008H59.182L58.818 57.492C58.5567 58.5653 58.286 59.438 58.006 60.11C57.7354 60.7727 57.4087 61.2767 57.026 61.622C56.6527 61.9673 56.2 62.14 55.668 62.14C55.3787 62.14 55.0427 62.0887 54.66 61.986L55.052 60.516C55.1827 60.544 55.2947 60.558 55.388 60.558C55.8454 60.558 56.2094 60.2967 56.48 59.774C56.7507 59.2513 57.0214 58.4533 57.292 57.38L57.992 54.524H64.04ZM72.7805 57.716C72.7805 58.08 72.7432 58.4347 72.6685 58.78H66.7325C66.7605 60.0027 67.4792 60.614 68.8885 60.614C69.3178 60.614 69.7192 60.5487 70.0925 60.418C70.4658 60.278 70.7832 60.0867 71.0445 59.844L71.7725 61.062C71.3898 61.4073 70.9278 61.6687 70.3865 61.846C69.8545 62.014 69.2945 62.098 68.7065 62.098C67.9598 62.098 67.3065 61.9627 66.7465 61.692C66.1958 61.4213 65.7712 61.0387 65.4725 60.544C65.1738 60.04 65.0245 59.4613 65.0245 58.808C65.0245 57.9773 65.2065 57.2307 65.5705 56.568C65.9438 55.896 66.4572 55.3733 67.1105 55C67.7732 54.6267 68.5152 54.44 69.3365 54.44C70.3818 54.44 71.2172 54.734 71.8425 55.322C72.4678 55.9007 72.7805 56.6987 72.7805 57.716ZM69.2525 55.84C68.6645 55.84 68.1605 55.9987 67.7405 56.316C67.3298 56.6333 67.0452 57.0673 66.8865 57.618H71.1705C71.1798 57.058 71.0072 56.624 70.6525 56.316C70.3072 55.9987 69.8405 55.84 69.2525 55.84ZM77.4422 62.098C76.7049 62.098 76.0562 61.9627 75.4962 61.692C74.9455 61.412 74.5209 61.0247 74.2222 60.53C73.9235 60.0353 73.7742 59.4613 73.7742 58.808C73.7742 57.9773 73.9655 57.2307 74.3482 56.568C74.7309 55.9053 75.2582 55.3873 75.9302 55.014C76.6115 54.6313 77.3862 54.44 78.2542 54.44C79.0102 54.44 79.6589 54.5893 80.2002 54.888C80.7509 55.1773 81.1755 55.6113 81.4742 56.19L79.9762 56.96C79.6309 56.2693 79.0102 55.924 78.1142 55.924C77.6195 55.924 77.1762 56.0453 76.7842 56.288C76.4015 56.5213 76.0982 56.8527 75.8742 57.282C75.6502 57.702 75.5382 58.1827 75.5382 58.724C75.5382 59.312 75.7109 59.774 76.0562 60.11C76.4015 60.4367 76.8915 60.6 77.5262 60.6C77.9555 60.6 78.3429 60.516 78.6882 60.348C79.0335 60.1707 79.3275 59.9093 79.5702 59.564L80.8582 60.432C80.5129 60.9547 80.0369 61.3653 79.4302 61.664C78.8235 61.9533 78.1609 62.098 77.4422 62.098ZM85.5896 62.098C84.8616 62.098 84.2223 61.9627 83.6716 61.692C83.1303 61.412 82.7103 61.0247 82.4116 60.53C82.113 60.0353 81.9636 59.4613 81.9636 58.808C81.9636 57.9773 82.1503 57.2307 82.5236 56.568C82.9063 55.9053 83.4336 55.3873 84.1056 55.014C84.787 54.6313 85.5523 54.44 86.4016 54.44C87.1296 54.44 87.769 54.5753 88.3196 54.846C88.8703 55.1167 89.295 55.4993 89.5936 55.994C89.8923 56.4887 90.0416 57.0627 90.0416 57.716C90.0416 58.5467 89.8503 59.2933 89.4676 59.956C89.085 60.6187 88.553 61.1413 87.8716 61.524C87.1996 61.9067 86.439 62.098 85.5896 62.098ZM85.7016 60.6C86.1963 60.6 86.635 60.4833 87.0176 60.25C87.4096 60.0073 87.7176 59.676 87.9416 59.256C88.1656 58.8267 88.2776 58.3413 88.2776 57.8C88.2776 57.212 88.105 56.7547 87.7596 56.428C87.4143 56.092 86.929 55.924 86.3036 55.924C85.809 55.924 85.3656 56.0453 84.9736 56.288C84.591 56.5213 84.2876 56.8527 84.0636 57.282C83.8396 57.702 83.7276 58.1827 83.7276 58.724C83.7276 59.312 83.9003 59.774 84.2456 60.11C84.591 60.4367 85.0763 60.6 85.7016 60.6Z" fill="#EC3636"/>
<defs>
<clipPath id="clip0_29_78">
<rect width="79" height="44" fill="white" transform="translate(7)"/>
</clipPath>
</defs>
</svg>
