<svg width="276" height="55" viewBox="0 0 276 55" fill="none" xmlns="http://www.w3.org/2000/svg">
<g clip-path="url(#clip0_29_112)">
<path d="M57.5857 5.6333C46.0957 5.6333 36.7878 15.1958 36.7878 27C36.7878 38.8043 46.0957 48.3667 57.5857 48.3667C69.0758 48.3667 78.3837 38.8043 78.3837 27C78.3837 15.1958 69.0758 5.6333 57.5857 5.6333ZM57.4625 42.0593C49.3011 42.0593 42.6808 35.2579 42.6808 26.8734C42.6808 18.4888 49.3011 11.6874 57.4625 11.6874C65.6238 11.6874 72.2441 18.4888 72.2441 26.8734C72.2441 35.2579 65.6238 42.0593 57.4625 42.0593Z" fill="white" stroke="white" stroke-miterlimit="10"/>
<path d="M57.4624 10.5475C48.6969 10.5475 41.5835 17.8555 41.5835 26.8607C41.5835 35.8659 48.6969 43.1739 57.4624 43.1739C66.2278 43.1739 73.3413 35.8659 73.3413 26.8607C73.3413 17.8555 66.2278 10.5475 57.4624 10.5475ZM57.4624 42.0593C49.301 42.0593 42.6807 35.2579 42.6807 26.8734C42.6807 18.4888 49.301 11.6874 57.4624 11.6874C65.6238 11.6874 72.2441 18.4888 72.2441 26.8734C72.2441 35.2579 65.6238 42.0593 57.4624 42.0593Z" fill="#7F7F7E"/>
<path d="M35.9001 26.7214C35.9001 26.81 35.9001 26.886 35.9001 26.9747C35.9001 28.1779 35.9988 29.3431 36.1714 30.4957C36.4549 32.3322 36.9604 34.08 37.6631 35.7266C38.2302 37.0564 38.9206 38.323 39.7219 39.5009C41.1027 41.54 42.8163 43.3132 44.7765 44.7317L46.9587 46.1249C48.9065 47.2015 51.0393 47.9614 53.2831 48.3541V48.5061H27.7634V44.7317H37.4165C38.7726 44.7317 39.8699 43.5792 39.8699 42.1733V42.0593C39.8699 40.6408 38.7726 39.5009 37.4165 39.5009H27.7634V35.7266H30.3277C31.6838 35.7266 32.7811 34.574 32.7811 33.1681V33.0541C32.7811 31.6356 31.6838 30.4957 30.3277 30.4957H27.7634V26.7214H31.6222C32.6824 26.6074 33.6317 26.1134 34.3468 25.3662C35.1728 24.5176 35.6782 23.327 35.6782 22.0225C35.6782 19.4134 33.644 17.2982 31.1414 17.2982H27.7634V13.4226H34.9015C35.481 13.4226 35.9988 13.1819 36.3809 12.7893C36.7631 12.3967 36.9974 11.8521 36.9974 11.2568C36.9974 10.0536 36.0604 9.07831 34.9139 9.07831H27.7758V5.29132H53.2954V5.58263C51.0393 5.96259 48.9065 6.73519 46.971 7.81176L44.9861 9.06564C43.2848 10.2815 41.7684 11.7381 40.4863 13.4099C39.5616 14.6005 38.7603 15.905 38.1069 17.2856C36.7385 20.1226 35.9618 23.327 35.9248 26.7087L35.9001 26.7214Z" fill="white"/>
<path d="M31.6222 26.7214C31.4619 26.734 31.3016 26.7467 31.1414 26.7467H5.68335V26.7214H31.6222Z" fill="white"/>
<path d="M9.43124 35.7266H2.73696C1.81097 35.7266 1.0603 36.4978 1.0603 37.4491V37.7784C1.0603 38.7297 1.81097 39.5009 2.73696 39.5009H9.43124C10.3572 39.5009 11.1079 38.7297 11.1079 37.7784V37.4491C11.1079 36.4978 10.3572 35.7266 9.43124 35.7266Z" fill="white"/>
<path d="M14.72 5.29132H11.6996C10.7257 5.29132 9.94897 6.10191 9.94897 7.08982V7.25448C9.94897 8.25505 10.738 9.05298 11.6996 9.05298H18.2336H44.9861L46.7737 7.79909V5.29132H14.72Z" fill="white"/>
<path d="M36.1713 30.483C35.9987 29.3431 35.9124 28.1652 35.9124 26.962C35.9124 26.8734 35.9124 26.7974 35.9124 26.7087H6.12709C5.15315 26.7087 4.37646 27.5193 4.37646 28.5072V28.6719C4.37646 29.6724 5.16548 30.4704 6.12709 30.4704H12.6611H36.1713V30.483Z" fill="white"/>
<path d="M8.28464 13.4099H1.75062C0.776685 13.4099 0 14.2205 0 15.2084V15.4744C0 16.475 0.789014 17.2729 1.75062 17.2729H38.0699C38.6863 15.8924 39.4384 14.5878 40.289 13.3972H8.28464V13.4099Z" fill="white"/>
<path d="M37.7001 35.7266H13.6845C12.7105 35.7266 11.9338 36.5372 11.9338 37.5251V37.6897C11.9338 38.6903 12.7229 39.4882 13.6845 39.4882H39.6356C38.8836 38.3103 38.2302 37.0438 37.7001 35.7139V35.7266Z" fill="white"/>
<path d="M46.9587 46.1249L44.8382 44.7317H20.6747C19.7008 44.7317 18.9241 45.5423 18.9241 46.5302V46.6949C18.9241 47.6954 19.7131 48.4934 20.6747 48.4934H27.2087H46.9587V46.1123V46.1249Z" fill="white"/>
<path d="M55.6009 12.726V23.6057H59.5829V12.688L60.8774 11.3581V10.1422H59.5829V9.05298H55.6009V10.1422H54.2817V11.3581L55.6009 12.7133V12.726Z" fill="white"/>
<path d="M74.8946 24.0616L73.7974 20.1353L72.7865 20.4393L72.4166 19.1347L71.2824 19.4767C70.9249 20.1353 70.6537 20.6419 70.3701 21.1612L60.1992 24.1756L61.2964 28.1019L71.5043 25.0749C71.9974 25.3535 72.4782 25.6321 73.107 25.9868L74.2412 25.6448L73.8837 24.3656L74.8946 24.0616Z" fill="white"/>
<path d="M68.225 38.171C67.5099 37.9937 66.9552 37.867 66.4004 37.7277L60.8403 28.4692L57.6966 30.4577L54.5529 28.4692L48.9928 37.7277C48.438 37.867 47.8832 37.9937 47.1682 38.171L46.5518 39.2096L47.686 39.9188L47.1312 40.8434L50.5215 42.9839L51.0763 42.0593L52.1735 42.7559L52.7899 41.7173C52.6296 41.0081 52.494 40.4508 52.3707 39.8935L57.7089 31.0023L63.0471 39.8935C62.9238 40.4508 62.7882 41.0081 62.6279 41.7173L63.2443 42.7559L64.3416 42.0593L64.8963 42.9839L68.2866 40.8434L67.7318 39.9188L68.8661 39.2096L68.2496 38.171H68.225Z" fill="white"/>
<path d="M54.9844 24.1629L44.8136 21.1486C44.53 20.6293 44.2588 20.1226 43.9013 19.464L42.7671 19.1221L42.3972 20.4266L41.3863 20.1226L40.2891 24.049L41.3 24.3529L40.9425 25.6321L42.0767 25.9741C42.7054 25.6195 43.1862 25.3408 43.6794 25.0622L53.8872 28.0893L54.9844 24.1629Z" fill="white"/>
<path d="M57.5856 22.985C55.4281 22.985 53.6775 24.7836 53.6775 27C53.6775 29.2165 55.4281 31.015 57.5856 31.015C59.743 31.015 61.4937 29.2165 61.4937 27C61.4937 24.7836 59.743 22.985 57.5856 22.985ZM57.5856 29.3558C56.3281 29.3558 55.2925 28.3046 55.2925 27C55.2925 25.6955 56.3158 24.6442 57.5856 24.6442C58.8554 24.6442 59.8786 25.6955 59.8786 27C59.8786 28.3046 58.8554 29.3558 57.5856 29.3558Z" fill="white"/>
</g>
<path d="M108.536 25.816H97.272L94.04 31H89.592L104.152 8.6H108.28L113.848 31H109.72L108.536 25.816ZM107.768 22.552L105.496 12.696L99.32 22.552H107.768ZM135.299 19.416C136.259 19.7787 137.006 20.344 137.539 21.112C138.072 21.88 138.339 22.8293 138.339 23.96C138.339 26.264 137.443 28.0133 135.651 29.208C133.859 30.4027 131.448 31 128.419 31H117.187L121.667 8.6H132.003C134.328 8.6 136.12 9.03733 137.379 9.912C138.659 10.7653 139.299 12.0027 139.299 13.624C139.299 15.0107 138.936 16.2053 138.211 17.208C137.486 18.1893 136.515 18.9253 135.299 19.416ZM125.155 11.864L123.907 18.04H129.827C131.406 18.04 132.654 17.7307 133.571 17.112C134.488 16.472 134.947 15.544 134.947 14.328C134.947 12.6853 133.656 11.864 131.075 11.864H125.155ZM128.707 27.736C130.456 27.736 131.8 27.416 132.739 26.776C133.699 26.136 134.179 25.1973 134.179 23.96C134.179 23 133.838 22.3173 133.155 21.912C132.494 21.4853 131.491 21.272 130.147 21.272H123.267L121.987 27.736H128.707ZM161.346 12.12H153.89L150.178 31H146.05L149.762 12.12H142.434L143.138 8.6H162.082L161.346 12.12ZM172.11 31.32C169.891 31.32 167.971 30.9253 166.35 30.136C164.75 29.3253 163.523 28.2053 162.67 26.776C161.816 25.3253 161.39 23.6507 161.39 21.752C161.39 19.2347 161.955 16.952 163.086 14.904C164.238 12.856 165.859 11.2453 167.95 10.072C170.04 8.87733 172.43 8.28 175.118 8.28C177.336 8.28 179.246 8.68533 180.846 9.496C182.467 10.2853 183.704 11.4053 184.558 12.856C185.411 14.2853 185.838 15.9493 185.838 17.848C185.838 20.3653 185.262 22.648 184.11 24.696C182.979 26.744 181.368 28.3653 179.278 29.56C177.187 30.7333 174.798 31.32 172.11 31.32ZM172.462 27.672C174.275 27.672 175.875 27.2453 177.262 26.392C178.67 25.5173 179.747 24.3547 180.494 22.904C181.262 21.432 181.646 19.832 181.646 18.104C181.646 16.2267 181.038 14.7333 179.822 13.624C178.627 12.4933 176.931 11.928 174.734 11.928C172.92 11.928 171.31 12.3653 169.902 13.24C168.515 14.0933 167.448 15.256 166.702 16.728C165.955 18.1787 165.582 19.768 165.582 21.496C165.582 23.3733 166.179 24.8773 167.374 26.008C168.568 27.1173 170.264 27.672 172.462 27.672Z" fill="white"/>
<path d="M97.692 41.974L100.184 47H98.238L96.194 42.856H94.276L93.45 47H91.63L93.59 37.2H95.41L94.584 41.302H96.362L100.002 37.2H102.046L97.692 41.974ZM106.319 47.14C105.349 47.14 104.509 46.9673 103.799 46.622C103.099 46.2673 102.563 45.7773 102.189 45.152C101.816 44.5173 101.629 43.7847 101.629 42.954C101.629 41.8527 101.877 40.854 102.371 39.958C102.875 39.062 103.585 38.3573 104.499 37.844C105.414 37.3213 106.459 37.06 107.635 37.06C108.606 37.06 109.441 37.2373 110.141 37.592C110.851 37.9373 111.392 38.4273 111.765 39.062C112.139 39.6873 112.325 40.4153 112.325 41.246C112.325 42.3473 112.073 43.346 111.569 44.242C111.075 45.138 110.37 45.8473 109.455 46.37C108.541 46.8833 107.495 47.14 106.319 47.14ZM106.473 45.544C107.267 45.544 107.967 45.3573 108.573 44.984C109.189 44.6013 109.661 44.0927 109.987 43.458C110.323 42.814 110.491 42.114 110.491 41.358C110.491 40.5367 110.225 39.8833 109.693 39.398C109.171 38.9033 108.429 38.656 107.467 38.656C106.674 38.656 105.969 38.8473 105.353 39.23C104.747 39.6033 104.28 40.112 103.953 40.756C103.627 41.3907 103.463 42.086 103.463 42.842C103.463 43.6633 103.725 44.3213 104.247 44.816C104.77 45.3013 105.512 45.544 106.473 45.544ZM123.372 37.2L121.412 47H119.62L121.272 38.74H117.394L116.806 41.288C116.451 42.7813 116.097 43.948 115.742 44.788C115.397 45.6187 114.995 46.2207 114.538 46.594C114.09 46.958 113.53 47.14 112.858 47.14C112.597 47.14 112.265 47.0933 111.864 47L112.298 45.418C112.41 45.4553 112.536 45.474 112.676 45.474C113.059 45.474 113.39 45.3387 113.67 45.068C113.95 44.7973 114.207 44.3587 114.44 43.752C114.683 43.1453 114.935 42.3147 115.196 41.26L116.162 37.2H123.372ZM127.627 38.726L127.123 41.274H131.869L131.575 42.772H126.815L126.283 45.474H131.827L131.519 47H124.169L126.129 37.2H133.283L132.975 38.726H127.627ZM138.491 47.14C137.511 47.14 136.662 46.9673 135.943 46.622C135.234 46.2673 134.688 45.7727 134.305 45.138C133.922 44.5033 133.731 43.7753 133.731 42.954C133.731 41.8527 133.983 40.854 134.487 39.958C134.991 39.062 135.7 38.3573 136.615 37.844C137.53 37.3213 138.58 37.06 139.765 37.06C140.614 37.06 141.361 37.2 142.005 37.48C142.658 37.76 143.153 38.166 143.489 38.698L142.173 39.804C141.622 39.0387 140.778 38.656 139.639 38.656C138.827 38.656 138.113 38.8427 137.497 39.216C136.881 39.5893 136.405 40.098 136.069 40.742C135.733 41.3767 135.565 42.0767 135.565 42.842C135.565 43.6727 135.831 44.3307 136.363 44.816C136.895 45.3013 137.651 45.544 138.631 45.544C139.76 45.544 140.689 45.166 141.417 44.41L142.481 45.558C142.014 46.09 141.44 46.4867 140.759 46.748C140.078 47.0093 139.322 47.14 138.491 47.14ZM148.538 47.14C147.567 47.14 146.727 46.9673 146.018 46.622C145.318 46.2673 144.781 45.7773 144.408 45.152C144.035 44.5173 143.848 43.7847 143.848 42.954C143.848 41.8527 144.095 40.854 144.59 39.958C145.094 39.062 145.803 38.3573 146.718 37.844C147.633 37.3213 148.678 37.06 149.854 37.06C150.825 37.06 151.66 37.2373 152.36 37.592C153.069 37.9373 153.611 38.4273 153.984 39.062C154.357 39.6873 154.544 40.4153 154.544 41.246C154.544 42.3473 154.292 43.346 153.788 44.242C153.293 45.138 152.589 45.8473 151.674 46.37C150.759 46.8833 149.714 47.14 148.538 47.14ZM148.692 45.544C149.485 45.544 150.185 45.3573 150.792 44.984C151.408 44.6013 151.879 44.0927 152.206 43.458C152.542 42.814 152.71 42.114 152.71 41.358C152.71 40.5367 152.444 39.8833 151.912 39.398C151.389 38.9033 150.647 38.656 149.686 38.656C148.893 38.656 148.188 38.8473 147.572 39.23C146.965 39.6033 146.499 40.112 146.172 40.756C145.845 41.3907 145.682 42.086 145.682 42.842C145.682 43.6633 145.943 44.3213 146.466 44.816C146.989 45.3013 147.731 45.544 148.692 45.544Z" fill="white"/>
<defs>
<clipPath id="clip0_29_112">
<rect width="79" height="44" fill="white" transform="translate(0 5)"/>
</clipPath>
</defs>
</svg>
